<svg width="45" height="45" viewBox="0 0 45 45" fill="none" xmlns="http://www.w3.org/2000/svg">
<g clip-path="url(#clip0_1_2796)">
<path d="M16.875 5.625H28.125L31.875 9.375H39.375C39.8723 9.375 40.3492 9.57254 40.7008 9.92418C41.0525 10.2758 41.25 10.7527 41.25 11.25V37.5C41.25 37.9973 41.0525 38.4742 40.7008 38.8258C40.3492 39.1775 39.8723 39.375 39.375 39.375H5.625C5.12772 39.375 4.65081 39.1775 4.29917 38.8258C3.94754 38.4742 3.75 37.9973 3.75 37.5V11.25C3.75 10.7527 3.94754 10.2758 4.29917 9.92418C4.65081 9.57254 5.12772 9.375 5.625 9.375H13.125L16.875 5.625ZM22.5 35.625C25.4837 35.625 28.3452 34.4397 30.455 32.33C32.5647 30.2202 33.75 27.3587 33.75 24.375C33.75 21.3913 32.5647 18.5298 30.455 16.42C28.3452 14.3103 25.4837 13.125 22.5 13.125C19.5163 13.125 16.6548 14.3103 14.545 16.42C12.4353 18.5298 11.25 21.3913 11.25 24.375C11.25 27.3587 12.4353 30.2202 14.545 32.33C16.6548 34.4397 19.5163 35.625 22.5 35.625ZM22.5 31.875C20.5109 31.875 18.6032 31.0848 17.1967 29.6783C15.7902 28.2718 15 26.3641 15 24.375C15 22.3859 15.7902 20.4782 17.1967 19.0717C18.6032 17.6652 20.5109 16.875 22.5 16.875C24.4891 16.875 26.3968 17.6652 27.8033 19.0717C29.2098 20.4782 30 22.3859 30 24.375C30 26.3641 29.2098 28.2718 27.8033 29.6783C26.3968 31.0848 24.4891 31.875 22.5 31.875Z" fill="#636E72"/>
</g>
<defs>
<clipPath id="clip0_1_2796">
<rect width="45" height="45" fill="white"/>
</clipPath>
</defs>
</svg>
