<svg width="28" height="28" viewBox="0 0 28 28" fill="none" xmlns="http://www.w3.org/2000/svg">
<g clip-path="url(#clip0_1_1988)">
<path d="M23.3333 19.8333H25.6666V22.1667H2.33331V19.8333H4.66665V11.6667C4.66665 9.19132 5.64998 6.81735 7.40032 5.06701C9.15066 3.31667 11.5246 2.33334 14 2.33334C16.4753 2.33334 18.8493 3.31667 20.5996 5.06701C22.35 6.81735 23.3333 9.19132 23.3333 11.6667V19.8333ZM21 19.8333V11.6667C21 9.81016 20.2625 8.02968 18.9497 6.71693C17.637 5.40417 15.8565 4.66668 14 4.66668C12.1435 4.66668 10.363 5.40417 9.05023 6.71693C7.73748 8.02968 6.99998 9.81016 6.99998 11.6667V19.8333H21ZM10.5 24.5H17.5V26.8333H10.5V24.5Z" fill="#09121F"/>
</g>
<defs>
<clipPath id="clip0_1_1988">
<rect width="28" height="28" fill="white"/>
</clipPath>
</defs>
</svg>
