<svg width="19" height="19" viewBox="0 0 19 19" fill="none" xmlns="http://www.w3.org/2000/svg">
<g clip-path="url(#clip0_1_2010)">
<path d="M15.0417 8.70833H8.70833V10.2917H15.0417V12.6667L19 9.5L15.0417 6.33333V8.70833ZM15.8333 14.25H13.6895C12.7754 15.0562 11.648 15.5815 10.4428 15.7628C9.23751 15.9442 8.00551 15.7739 6.89462 15.2724C5.78373 14.771 4.84114 13.9596 4.17995 12.9357C3.51876 11.9118 3.16706 10.7188 3.16706 9.5C3.16706 8.28116 3.51876 7.08822 4.17995 6.06431C4.84114 5.0404 5.78373 4.22903 6.89462 3.72756C8.00551 3.22608 9.23751 3.05581 10.4428 3.23717C11.648 3.41853 12.7754 3.94381 13.6895 4.75H15.8333C15.0966 3.76609 14.1405 2.96757 13.0411 2.41786C11.9417 1.86815 10.7292 1.58241 9.5 1.58333C5.12763 1.58333 1.58333 5.12762 1.58333 9.5C1.58333 13.8724 5.12763 17.4167 9.5 17.4167C10.7292 17.4176 11.9417 17.1318 13.0411 16.5821C14.1405 16.0324 15.0966 15.2339 15.8333 14.25Z" fill="#12A3DA"/>
</g>
<defs>
<clipPath id="clip0_1_2010">
<rect width="19" height="19" fill="white" transform="matrix(-1 0 0 1 19 0)"/>
</clipPath>
</defs>
</svg>
