<svg width="19" height="19" viewBox="0 0 19 19" fill="none" xmlns="http://www.w3.org/2000/svg">
<g clip-path="url(#clip0_0_24)">
<path d="M7.91669 8.70833V6.33333L11.875 9.5L7.91669 12.6667V10.2917H0.79169V8.70833H7.91669ZM1.94594 11.875H3.62744C4.18006 13.2359 5.18837 14.3626 6.47991 15.0622C7.77144 15.7618 9.26593 15.991 10.7077 15.7104C12.1496 15.4299 13.4491 14.6571 14.3841 13.5242C15.319 12.3914 15.8313 10.9689 15.8334 9.5C15.8342 8.0296 15.3233 6.60474 14.3885 5.4698C13.4536 4.33486 12.153 3.56057 10.7097 3.27973C9.26634 2.99889 7.77027 3.229 6.47805 3.93061C5.18584 4.63221 4.17802 5.76158 3.62744 7.125H1.94594C2.95452 3.91321 5.95494 1.58333 9.50002 1.58333C13.8724 1.58333 17.4167 5.12762 17.4167 9.5C17.4167 13.8724 13.8724 17.4167 9.50002 17.4167C5.95494 17.4167 2.95452 15.0868 1.94594 11.875Z" fill="#12A3DA"/>
</g>
<defs>
<clipPath id="clip0_0_24">
<rect width="18.7861" height="18.7861" fill="white" transform="scale(1.01139)"/>
</clipPath>
</defs>
</svg>
