<svg width="40" height="42" viewBox="0 0 40 42" fill="none" xmlns="http://www.w3.org/2000/svg">
<g clip-path="url(#clip0_1_644)">
<path d="M0.487186 16.0411C0.22883 15.8658 0.0719707 15.6467 0.0166086 15.3837C-0.0387534 15.1208 0.0442896 14.849 0.265738 14.5685C2.55404 11.5882 5.42363 9.27406 8.87453 7.62612C12.3254 5.97818 16.007 5.15421 19.9193 5.15421C23.8315 5.15421 27.5223 5.95188 30.9917 7.54723C34.461 9.14258 37.3583 11.4479 39.6835 14.4633C39.9419 14.7789 40.0249 15.0594 39.9326 15.3048C39.8404 15.5503 39.6835 15.7606 39.4621 15.936C39.2406 16.1113 38.9823 16.1902 38.687 16.1726C38.3917 16.1551 38.1334 16.0061 37.9119 15.7256C35.882 12.9907 33.2707 10.8957 30.0782 9.44061C26.8857 7.98551 23.4993 7.25796 19.9193 7.25796C16.3392 7.25796 12.9806 7.98551 9.84337 9.44061C6.70619 10.8957 4.10417 12.9907 2.03732 15.7256C1.81587 16.0411 1.55752 16.2165 1.26225 16.2515C0.96699 16.2866 0.708634 16.2165 0.487186 16.0411ZM26.1752 41.97C22.3367 41.0583 19.1996 39.2438 16.7636 36.5265C14.3277 33.8091 13.1097 30.4869 13.1097 26.5599C13.1097 24.8068 13.7741 23.3342 15.1028 22.142C16.4315 20.9499 18.037 20.3539 19.9193 20.3539C21.8016 20.3539 23.4071 20.9499 24.7358 22.142C26.0644 23.3342 26.7288 24.8068 26.7288 26.5599C26.7288 27.717 27.1901 28.69 28.1128 29.4789C29.0355 30.2678 30.1243 30.6623 31.3792 30.6623C32.6341 30.6623 33.7044 30.2678 34.5902 29.4789C35.476 28.69 35.9189 27.717 35.9189 26.5599C35.9189 22.4927 34.3503 19.0741 31.2131 16.3041C28.0759 13.5342 24.3298 12.1492 19.9746 12.1492C15.6195 12.1492 11.8733 13.5342 8.73613 16.3041C5.59895 19.0741 4.03036 22.4751 4.03036 26.5073C4.03036 27.3488 4.1134 28.4007 4.27949 29.663C4.44557 30.9252 4.84233 32.3979 5.46977 34.0809C5.58049 34.3964 5.57127 34.6769 5.44209 34.9224C5.31291 35.1678 5.10069 35.3431 4.80543 35.4483C4.51016 35.5535 4.22412 35.5447 3.94731 35.422C3.6705 35.2993 3.47674 35.0977 3.36601 34.8172C2.81239 33.4497 2.41563 32.0911 2.17573 30.7412C1.93583 29.3912 1.81587 27.9975 1.81587 26.5599C1.81587 21.8966 3.59669 17.9871 7.15831 14.8315C10.7199 11.6759 14.9736 10.098 19.9193 10.098C24.9018 10.098 29.1832 11.6759 32.7633 14.8315C36.3433 17.9871 38.1334 21.8966 38.1334 26.5599C38.1334 28.3131 37.4783 29.7769 36.168 30.9515C34.8578 32.1261 33.2615 32.7134 31.3792 32.7134C29.4969 32.7134 27.8822 32.1261 26.535 30.9515C25.1879 29.7769 24.5143 28.3131 24.5143 26.5599C24.5143 25.4029 24.0622 24.4299 23.1579 23.641C22.2537 22.8521 21.1741 22.4576 19.9193 22.4576C18.6644 22.4576 17.5848 22.8521 16.6806 23.641C15.7763 24.4299 15.3242 25.4029 15.3242 26.5599C15.3242 29.961 16.3853 32.8011 18.5075 35.0802C20.6297 37.3592 23.3702 38.9546 26.7288 39.8662C27.061 39.9714 27.2824 40.1467 27.3931 40.3921C27.5039 40.6376 27.5223 40.9005 27.4485 41.181C27.3747 41.4265 27.2271 41.6369 27.0056 41.8122C26.7842 41.9875 26.5073 42.0401 26.1752 41.97ZM7.68425 5.04902C7.38899 5.22433 7.09372 5.26816 6.79846 5.1805C6.50319 5.09285 6.28175 4.90877 6.13411 4.62827C5.98648 4.34776 5.94957 4.09356 6.02339 3.86565C6.09721 3.63775 6.28175 3.43614 6.57701 3.26082C8.64386 2.20895 10.803 1.4025 13.0544 0.841503C15.3058 0.280501 17.5941 0 19.9193 0C22.2814 0 24.5881 0.271735 26.8395 0.815206C29.0909 1.35868 31.2685 2.13882 33.3722 3.15564C33.7044 3.33095 33.8982 3.54132 33.9535 3.78676C34.0089 4.0322 33.9812 4.27764 33.8705 4.52308C33.7598 4.76852 33.5752 4.96136 33.3169 5.10161C33.0585 5.24186 32.7448 5.22433 32.3757 5.04902C30.4196 4.10233 28.3989 3.37478 26.3136 2.86637C24.2283 2.35796 22.0968 2.10376 19.9193 2.10376C17.7786 2.10376 15.6748 2.34043 13.608 2.81378C11.5411 3.28712 9.56656 4.0322 7.68425 5.04902ZM14.217 41.2336C12.0394 39.0598 10.3693 36.842 9.20671 34.5805C8.0441 32.319 7.4628 29.6454 7.4628 26.5599C7.4628 23.3692 8.68077 20.6782 11.1167 18.4868C13.5526 16.2954 16.4868 15.1996 19.9193 15.1996C23.3517 15.1996 26.3043 16.2954 28.7772 18.4868C31.25 20.6782 32.4864 23.3692 32.4864 26.5599C32.4864 26.8755 32.3849 27.1297 32.182 27.3225C31.979 27.5154 31.7114 27.6118 31.3792 27.6118C31.0839 27.6118 30.8256 27.5154 30.6041 27.3225C30.3827 27.1297 30.272 26.8755 30.272 26.5599C30.272 23.9302 29.2478 21.7301 27.1994 19.9594C25.151 18.1887 22.7243 17.3034 19.9193 17.3034C17.1143 17.3034 14.706 18.1887 12.6945 19.9594C10.683 21.7301 9.67728 23.9302 9.67728 26.5599C9.67728 29.4 10.194 31.8106 11.2274 33.7916C12.2608 35.7726 13.7741 37.7624 15.7671 39.761C15.9886 39.9714 16.0993 40.2168 16.0993 40.4973C16.0993 40.7778 15.9886 41.0233 15.7671 41.2336C15.5457 41.444 15.2873 41.5492 14.992 41.5492C14.6968 41.5492 14.4384 41.444 14.217 41.2336ZM30.9363 37.6573C27.6515 37.6573 24.8003 36.6054 22.3829 34.5016C19.9654 32.3979 18.7567 29.7506 18.7567 26.5599C18.7567 26.2794 18.8582 26.034 19.0611 25.8236C19.2641 25.6132 19.5317 25.5081 19.8639 25.5081C20.1961 25.5081 20.4637 25.6132 20.6666 25.8236C20.8696 26.034 20.9711 26.2794 20.9711 26.5599C20.9711 29.1896 21.9677 31.346 23.9607 33.029C25.9537 34.712 28.2789 35.5535 30.9363 35.5535C31.1578 35.5535 31.4715 35.536 31.8775 35.5009C32.2835 35.4658 32.7079 35.4132 33.1508 35.3431C33.483 35.273 33.769 35.3168 34.0089 35.4746C34.2488 35.6324 34.4057 35.8691 34.4795 36.1846C34.5533 36.4651 34.4979 36.7106 34.3134 36.9209C34.1289 37.1313 33.8889 37.2716 33.5937 37.3417C32.9293 37.517 32.348 37.6134 31.8498 37.631C31.3515 37.6485 31.047 37.6573 30.9363 37.6573Z" fill="black"/>
</g>
<defs>
<clipPath id="clip0_1_644">
<rect width="39.8977" height="41.925" fill="white" transform="scale(1.00179)"/>
</clipPath>
</defs>
</svg>
