<svg width="160" height="174" viewBox="0 0 160 174" fill="none" xmlns="http://www.w3.org/2000/svg">
<rect x="6.10351e-05" width="160" height="174" rx="8" fill="#636E72"/>
<path opacity="0.2" fill-rule="evenodd" clip-rule="evenodd" d="M41.8812 9.53674e-06C41.1383 8.7505 37.5438 29.9521 24.3389 39.778C12.233 48.7862 3.87853 46.8003 -2.09963e-05 43.9582L-2.20274e-05 20C-2.25028e-05 8.95432 8.95427 1.53838e-05 20 1.34224e-05L41.8812 9.53674e-06Z" fill="#313638"/>
<path opacity="0.2" fill-rule="evenodd" clip-rule="evenodd" d="M87.6308 174L148 174C154.615 174 159.98 168.647 160 162.036V81.2C159.59 94.7333 152.517 121.8 127.508 121.8C102.498 121.8 90.5026 156.6 87.6308 174Z" fill="#313638"/>
</svg>
