<svg width="20" height="20" viewBox="0 0 20 20" fill="none" xmlns="http://www.w3.org/2000/svg">
<path d="M2.53145 15.28L9.4046 3.40559C9.46499 3.30126 9.55175 3.21464 9.65619 3.15442C9.76062 3.0942 9.87906 3.0625 9.99961 3.0625C10.1202 3.0625 10.2386 3.0942 10.343 3.15442C10.4475 3.21464 10.5342 3.30126 10.5946 3.40559L17.4678 15.28C17.5283 15.3845 17.5602 15.5031 17.5603 15.6238C17.5604 15.7446 17.5287 15.8632 17.4683 15.9678C17.408 16.0724 17.3212 16.1593 17.2167 16.2197C17.1121 16.2801 16.9935 16.3119 16.8728 16.3119H3.12647C3.00572 16.3119 2.88711 16.2801 2.78255 16.2197L2.50117 16.7068L2.78255 16.2197C2.678 16.1593 2.5912 16.0724 2.53088 15.9678C2.47057 15.8632 2.43887 15.7446 2.43897 15.6238C2.43906 15.5031 2.47096 15.3845 2.53145 15.28Z" fill="#E64545" stroke="#E64545" stroke-width="1.125"/>
<path d="M10.0005 8.75V11.25" stroke="white" stroke-width="1.125" stroke-linecap="round" stroke-linejoin="round"/>
<path d="M8.91777 3.12381L2.04462 14.9982C1.93464 15.1882 1.87665 15.4038 1.87647 15.6234C1.87628 15.8429 1.93392 16.0586 2.04359 16.2488C2.15325 16.439 2.31107 16.5969 2.50117 16.7068C2.69126 16.8166 2.90693 16.8744 3.12647 16.8744H16.8728C17.0923 16.8744 17.308 16.8166 17.4981 16.7068C17.6882 16.5969 17.846 16.439 17.9556 16.2488C18.0653 16.0586 18.1229 15.8429 18.1228 15.6234C18.1226 15.4038 18.0646 15.1882 17.9546 14.9982L11.0815 3.12381C10.9716 2.93411 10.8139 2.77661 10.624 2.66712C10.4341 2.55763 10.2188 2.5 9.99961 2.5C9.78042 2.5 9.56509 2.55763 9.37521 2.66712C9.18533 2.77661 9.02757 2.93411 8.91777 3.12381V3.12381Z" stroke="#E64545" stroke-width="1.125" stroke-linecap="round" stroke-linejoin="round"/>
<path d="M10.3755 14.0625C10.3755 14.2696 10.2076 14.4375 10.0005 14.4375C9.79338 14.4375 9.62549 14.2696 9.62549 14.0625C9.62549 13.8554 9.79338 13.6875 10.0005 13.6875C10.2076 13.6875 10.3755 13.8554 10.3755 14.0625Z" fill="white" stroke="white" stroke-width="1.125"/>
</svg>
